PathFileType	4	(X/Y/Z)	C:\Users\°ÂÌØÂü\Desktop\20210112\bx_y_5_901-Unnamed.trc
DataRate	CameraRate	NumFrames	NumMarkers	Units	OrigDataRate	OrigDataStartFrame	OrigNumFrames
50.00	50.00	       7	0	mm	50.00	330	       527
Frame#	Time	
		

330	6.580	-865.67157	-69.78887	683.38666	-371.46060	257.81638	929.76233	-796.36792	-15.71984	792.03711	-885.90521	288.29401	720.13745	-953.23993	86.99459	1090.25073	-859.21027	281.40918	852.90112	-869.61389	-79.59277	836.33984	-677.73285	176.78662	162.70340	-797.14948	211.92754	800.87354	-872.72192	252.81316	611.53424	-783.20740	10.50324	521.23425	-729.47003	70.66878	221.26355				-854.12146	245.99228	556.42572	-789.19513	204.15442	531.00073	-871.90784	258.37051	477.71533				-664.83130	-68.58625	160.41011				-623.68182	-79.12228	157.84369	-777.22339	228.51631	200.06720	-882.51721	295.96179	144.49458	-676.93201	52.22134	163.92709	-562.41083	-38.22621	163.35100	-604.59949	19.33192	166.99503				-518.02191	-73.17791	142.95326	-596.74518	223.54085	173.15866	-665.79620	300.33911	158.52087	-627.39423	307.91821	161.05078	-562.80389	258.91821	164.84138	-528.01288	304.03268	146.13277	-127.49950	122.11890	1026.23071	-800.22437	179.00272	179.45677				-797.18469	51.41293	171.32025	-866.87878	-41.36320	462.01544	-773.64563	-11.46384	198.55150	-875.96442	-79.11864	140.93123							-846.79254	-32.02456	549.97241							-722.84241	158.34305	222.49928	
331	6.600	-866.31445	-70.23589	683.43970				-796.65594	-15.71801	791.96704	-886.51514	288.34155	720.14050	-953.92065	86.59650	1090.25598	-860.06934	281.44928	853.15680	-870.50281	-80.02544	836.53070	-677.54077	176.74883	162.96991	-797.99426	211.31984	800.54272	-873.04694	252.76611	611.48755	-783.32568	10.42331	521.22693	-729.75201	70.35184	221.22311				-854.36554	245.83028	556.24792	-789.56506	203.99554	530.91168	-871.90784	258.37051	477.71533				-664.78210	-68.89450	160.54901				-623.59210	-79.14526	157.84813	-777.08112	228.44370	199.42104	-882.50238	296.05829	144.59911	-677.04590	52.30655	164.03879	-562.60345	-38.16636	163.40123	-604.59949	19.33192	166.99503				-517.91119	-72.83681	142.86755	-596.70343	223.42653	173.18726	-665.89716	300.32425	158.43999	-627.39423	307.91821	161.05078	-562.91150	259.03888	164.95222	-528.11469	303.93356	146.37912	-128.29219	121.75076	1029.13550	-800.12616	178.83617	179.44687				-797.19543	51.32609	171.43279	-867.01843	-41.84935	462.07782	-773.74390	-11.73252	198.46500	-875.99457	-78.94872	141.12155							-847.17090	-32.17884	549.74646							-722.89551	158.35468	222.42876	
332	6.620	-866.79871	-70.83218	683.40350				-796.88824	-16.09940	791.85419	-886.82172	288.39627	720.35730	-954.96375	86.59286	1090.03979	-860.66827	280.79193	852.97498	-870.68646	-80.45824	836.54504	-677.60492	177.09555	162.85942	-798.51801	211.17676	800.80664	-873.12653	252.87086	611.45123	-783.66486	10.54690	521.09583	-729.75201	70.35184	221.22311				-854.47015	245.84839	556.37891	-789.84192	204.08379	531.18884	-871.73212	258.81979	477.56894				-664.78363	-68.89764	160.50037				-623.47333	-79.35969	157.79587	-777.43298	228.25909	199.34715	-882.50830	296.11615	144.58771	-677.17218	52.48048	164.03575	-562.60345	-38.16636	163.40123	-604.57703	19.43958	167.11183				-517.96478	-73.26984	142.65631	-596.70428	223.48146	173.13579	-665.79376	300.44730	158.64511	-627.60333	307.83450	161.33432	-562.93591	258.79623	165.05624	-528.10858	303.68680	146.17725	-128.82095	121.56218	1033.04065	-800.37225	178.89439	179.30034				-797.18469	51.41293	171.32025	-867.37463	-42.18547	462.09393	-773.91064	-11.79499	198.35922	-876.18384	-78.95393	141.52309							-847.86536	-32.31185	549.36835							-722.93683	158.68440	222.09445	
333	6.640	-867.37952	-70.72273	683.04712	-372.67487	257.24808	938.33356	-797.31067	-16.55213	791.90643	-887.55469	288.20663	720.54144	-956.54736	86.43101	1089.79944	-861.22156	280.66443	853.07422	-871.34601	-80.84956	837.05115	-677.31812	177.33128	163.30559				-873.56628	252.70744	611.33057	-783.88214	10.45066	521.20154	-729.75201	70.35184	221.22311				-854.69116	245.52448	556.27960	-790.02722	203.89847	531.14606	-871.97382	258.86252	477.54984				-664.84406	-68.94714	160.42712				-623.38385	-79.60214	158.04529	-777.15979	228.24084	199.29129	-882.56165	296.02393	144.54869	-677.34167	52.36057	164.05266	-562.59698	-38.29116	163.31682	-604.49792	19.35663	167.18607				-517.91119	-72.83681	142.86755	-596.81903	223.59790	173.21490	-665.75897	300.25858	158.61372	-627.51892	307.74896	161.28000	-562.92029	258.86069	164.94695	-528.18732	303.84201	146.24004	-129.62021	121.43749	1037.11694	-800.31415	178.65660	179.31494				-797.19543	51.32609	171.43279	-867.57037	-42.43212	461.91876	-773.98315	-11.78057	198.25522	-875.93359	-78.96604	141.13327							-848.03607	-32.39454	549.05023							-723.08038	158.24857	222.59865	
334	6.660	-867.99792	-70.27982	682.66235				-797.58997	-16.87025	791.85004	-887.89825	287.78287	720.04681	-957.90778	86.04829	1089.28625	-862.09564	280.42584	853.11652	-871.71558	-80.81364	836.74274	-677.60449	176.57251	162.86082	-799.14313	210.77005	800.91144	-873.88690	252.55295	611.26117	-784.24701	10.34522	521.29309	-729.68835	70.22247	221.37187				-854.84735	245.62514	555.91205	-790.21143	204.08646	531.04956	-872.50720	258.49185	477.41516				-664.90826	-69.00995	160.35051				-623.67261	-79.69893	157.95056	-777.51337	228.15707	199.15842	-882.57751	296.05408	144.51141	-677.17761	52.25229	164.11415	-562.45929	-38.14584	163.35242	-604.66400	19.30145	167.06714				-518.06140	-73.14240	142.77582	-596.85455	223.55038	173.33325	-665.85992	300.24371	158.53285	-627.47992	307.71375	161.07236	-563.11401	258.98807	164.97743	-528.15753	303.80014	146.04736	-130.49164	120.88655	1042.93005	-800.34650	178.33347	179.27211				-797.08008	51.42467	171.09264	-867.86578	-42.39344	461.70300	-773.97516	-11.74040	198.30565	-875.93359	-78.96604	141.13327							-848.45020	-32.63680	549.29218							-722.97620	158.63451	222.18694	
335	6.680	-868.11603	-70.26951	682.41882	-373.57855	257.38498	947.60504	-798.15118	-16.61331	791.73840	-888.39026	287.48581	720.06946	-959.39795	85.86938	1088.82874	-862.90546	280.14740	853.20447	-872.19379	-80.95226	836.78094	-677.60449	176.57251	162.86082	-800.03735	210.86809	801.14587	-874.44806	252.25163	611.35114	-784.73920	10.01202	521.31097	-729.62390	69.99509	221.32506				-855.44482	245.31122	555.62372	-790.32483	204.14754	531.06256	-873.28711	258.19659	476.95956				-664.82965	-69.01510	160.41092				-623.50305	-79.52862	157.94316	-777.52283	228.16443	199.01672	-882.44019	296.13928	144.69241	-676.86755	51.99700	164.28317	-562.50751	-38.11214	163.29404	-604.57703	19.43958	167.11183				-517.91119	-72.83681	142.86755	-596.89844	223.65295	173.65331	-665.95691	300.10858	158.55113	-627.64148	307.78558	161.30220	-563.06030	258.81201	164.93002	-528.16370	304.04691	146.24925	-131.57716	121.06555	1049.36023	-800.54553	178.58807	179.11819				-797.12317	51.39695	171.00595	-868.11566	-42.56181	461.62000	-774.09076	-11.85572	198.28557	-875.74500	-78.72310	141.48335							-848.56696	-32.98561	549.15863							-722.97235	158.46457	222.63106	
336	6.700	-868.40796	-70.59082	682.19312	-373.89102	257.07925	953.01575	-798.96649	-16.45509	791.54822	-888.68317	287.10699	719.94446	-960.55176	85.82653	1088.19409	-863.26355	280.03818	853.41852	-872.66833	-80.63947	836.56805	-677.60449	176.57251	162.86082	-800.63080	210.34592	800.93219	-874.90149	252.40384	611.50995	-785.31903	9.85086	520.90302	-729.82251	70.15717	221.22784				-856.21216	244.96846	555.48315	-791.09235	203.85419	530.88275	-873.85059	258.48489	476.93533				-664.73901	-69.04375	160.50668				-623.62372	-79.55877	157.92036	-777.72516	228.00607	199.17056	-882.67206	295.98730	144.45169	-677.19183	52.59905	164.02635	-562.87463	-37.70269	162.82030	-604.73340	19.25781	167.12022				-517.91119	-72.83681	142.86755	-597.09918	223.81456	173.63043	-666.06219	300.20157	158.39014	-627.64148	307.78558	161.30220	-563.24518	259.15521	164.81456	-528.18823	303.95224	146.27153	-132.35161	121.28211	1057.08264	-800.49225	178.37227	179.15660				-797.23621	51.39513	170.96411	-868.75494	-42.55578	461.16696	-774.22394	-11.78705	198.21587	-875.94830	-79.04633	141.53731							-849.26764	-33.24812	548.94824							-723.04895	158.33293	222.30009	
